<?xml version="1.0" standalone="no"?>
<!DOCTYPE svg PUBLIC "-//W3C//DTD SVG 20010904//EN"
 "http://www.w3.org/TR/2001/REC-SVG-20010904/DTD/svg10.dtd">
<svg version="1.0" xmlns="http://www.w3.org/2000/svg"
 width="1024.000000pt" height="1024.000000pt" viewBox="0 0 1024.000000 1024.000000"
 preserveAspectRatio="xMidYMid meet">
<metadata>
Created by potrace 1.14, written by Peter Selinger 2001-2017
</metadata>
<g transform="translate(0.000000,1024.000000) scale(0.100000,-0.100000)"
fill="#000000" stroke="none">
<path d="M0 5120 l0 -5120 5120 0 5120 0 0 5120 0 5120 -5120 0 -5120 0 0
-5120z m3862 2890 c35 -11 85 -33 110 -50 58 -38 145 -132 177 -190 l24 -43
-104 7 c-102 7 -105 8 -134 40 -95 107 -234 125 -342 47 -52 -37 -84 -104 -91
-187 l-5 -64 -82 0 c-45 0 -84 2 -86 5 -3 2 -2 37 2 77 19 170 156 329 316
367 65 15 148 12 215 -9z m1053 -146 c23 -23 15 -66 -15 -81 -17 -9 -67 -13
-153 -12 -173 1 -205 7 -224 35 -14 22 -14 26 1 49 l16 25 180 0 c151 0 181
-2 195 -16z m-1827 -193 c2 -20 -2 -37 -10 -42 -7 -5 -97 -9 -200 -9 -175 0
-188 1 -198 19 -14 27 -13 37 6 55 14 14 43 16 207 14 l192 -3 3 -34z m1013
-81 c49 -25 96 -81 109 -130 22 -83 -35 -180 -118 -197 -20 -4 -360 -8 -754
-8 -710 0 -718 0 -738 21 -13 12 -21 35 -22 59 -1 31 4 43 27 62 l28 25 346
-6 c190 -3 439 -9 554 -12 l207 -6 16 39 c33 79 108 149 185 172 43 13 113 4
160 -19z m2639 -6 c232 -44 442 -156 601 -321 138 -144 221 -274 277 -434 46
-132 52 -202 52 -650 l0 -410 -25 -24 c-31 -32 -75 -33 -102 -2 -21 21 -21 33
-25 452 -5 483 -9 512 -79 663 -134 289 -353 476 -659 560 l-95 27 -1136 3
-1137 3 -20 47 c-11 26 -23 59 -27 75 l-7 27 1150 0 c997 0 1161 -2 1232 -16z
m-4379 -173 c39 -40 40 -89 1 -132 -22 -25 -36 -31 -67 -31 -52 0 -95 45 -95
98 0 50 45 94 95 94 27 0 44 -8 66 -29z m4325 -182 c320 -56 549 -265 630
-574 17 -65 18 -125 19 -850 l0 -780 -23 -85 c-70 -254 -264 -488 -477 -574
-32 -14 -62 -23 -66 -21 -3 3 -9 24 -13 47 -4 24 -9 52 -12 64 -4 17 8 28 77
68 112 66 212 168 266 271 73 143 94 235 95 423 0 62 5 115 10 118 5 4 5 10 0
17 -14 18 -12 318 2 310 8 -5 8 -3 -1 8 -12 14 -15 201 -3 194 3 -2 7 6 7 18
2 17 0 18 -7 7 -6 -10 -9 -5 -8 18 1 17 4 29 8 27 4 -2 7 2 7 10 0 8 -4 12 -8
9 -4 -2 -8 108 -9 246 -1 283 -5 359 -26 444 -47 190 -205 343 -423 408 -64
19 -107 20 -1226 25 -1324 5 -1227 4 -1215 19 6 6 6 15 2 19 -4 5 -1 5 6 1 7
-4 10 -11 8 -15 -3 -4 6 -7 20 -7 13 0 24 4 24 8 0 5 -8 8 -17 6 -10 -2 -17 2
-16 9 2 7 -6 10 -16 8 -14 -2 -18 3 -18 20 0 13 4 23 10 22 5 -1 12 5 14 13 4
13 3 13 -7 0 -10 -12 -11 -11 -7 8 3 12 1 20 -4 16 -5 -3 -9 1 -9 8 0 10 -2
10 -9 0 -9 -15 -17 -15 -43 -1 -14 7 -16 6 -12 -6 4 -8 2 -15 -4 -15 -6 0 -9
8 -8 18 2 13 15 18 57 20 30 2 59 5 64 7 26 9 2306 4 2361 -6z m-2522 -27 c3
-5 -1 -9 -9 -9 -8 0 -12 4 -9 9 3 4 7 8 9 8 2 0 6 -4 9 -8z m87 -11 c7 12 9
11 9 -1 0 -13 1 -13 10 0 8 13 10 13 10 -1 0 -12 -8 -16 -29 -15 -21 0 -27 5
-23 15 4 12 7 12 10 2 4 -11 6 -11 13 0z m25 -68 c1 -15 0 -22 -3 -15 -4 10
-8 9 -18 -5 -11 -15 -12 -13 -9 15 2 19 0 31 -5 27 -5 -3 -12 -1 -15 4 -8 12
26 20 38 10 5 -5 10 -21 12 -36z m-66 31 c0 -8 -19 -13 -24 -6 -3 5 1 9 9 9 8
0 15 -2 15 -3z m-2028 -141 c22 -20 23 -51 1 -75 -31 -35 -93 -10 -93 38 0 48
55 70 92 37z m629 7 c22 -12 26 -59 7 -78 -8 -8 -59 -12 -164 -12 -125 0 -155
3 -168 16 -21 20 -20 43 1 66 14 16 33 18 160 18 80 0 153 -5 164 -10z m1542
-350 c43 -135 95 -301 116 -370 62 -202 157 -505 251 -805 49 -154 100 -319
115 -367 l26 -88 990 0 c813 0 989 -2 989 -13 0 -7 -7 -35 -16 -62 -23 -65
-95 -140 -151 -154 -31 -9 -303 -11 -961 -9 l-918 3 -49 26 c-28 14 -64 44
-82 68 -35 45 -39 57 -298 876 -70 220 -167 522 -215 670 l-87 270 -294 0
c-318 0 -320 0 -353 56 -9 15 -16 35 -16 44 0 29 30 82 53 93 15 7 155 10 422
9 l399 -2 79 -245z m2524 82 l162 -2 -39 -117 c-21 -65 -93 -287 -160 -493
-67 -206 -140 -430 -162 -497 l-41 -123 -728 0 -729 0 0 28 c0 15 -7 61 -14
102 -49 259 -80 445 -89 525 -2 17 -12 70 -22 119 -13 64 -21 84 -26 70 -6
-16 -8 -15 -8 9 -1 15 3 27 8 27 4 0 6 11 4 24 -3 16 -10 23 -19 19 -8 -3 -14
0 -14 6 0 6 5 11 10 11 7 0 7 6 1 18 -6 9 -13 31 -17 47 -20 81 -22 84 -57 80
-18 -2 -111 -7 -208 -9 l-177 -5 -11 27 c-9 23 -41 122 -41 129 0 7 1933 11
2377 5z m-3634 -77 c20 -42 37 -78 37 -80 0 -3 -295 -5 -655 -5 l-656 0 -24
25 c-40 39 -31 94 20 123 14 8 190 11 630 12 l611 0 37 -75z m768 -384 l26
-69 -201 -7 c-111 -3 -514 -5 -897 -3 -669 3 -698 4 -718 22 -29 27 -26 62 8
97 l29 29 864 0 863 0 26 -69z m1009 -79 c0 -4 -6 -14 -12 -21 -10 -11 -10
-13 0 -7 8 5 12 -1 13 -21 0 -25 2 -35 9 -68 8 -33 0 -35 -147 -35 l-148 0
-32 80 -31 80 174 0 c96 0 174 -4 174 -8z m-1465 -152 c52 -22 119 -81 152
-132 l23 -38 203 0 204 0 51 -162 c29 -90 52 -166 52 -170 0 -5 -30 -8 -66 -8
l-66 0 5 -29 c3 -16 9 -40 13 -55 l6 -26 -641 0 c-694 0 -689 0 -724 54 -27
41 -31 80 -12 119 29 62 54 71 203 77 l133 5 4 60 c6 121 78 240 173 289 91
47 200 53 287 16z m-675 -49 c14 -4 31 -19 39 -33 13 -23 13 -29 -2 -52 l-17
-26 -165 0 c-176 0 -195 5 -195 54 0 42 28 55 125 59 157 5 189 5 215 -2z
m-609 -11 c22 -12 27 -68 7 -88 -30 -30 -98 -1 -98 41 0 45 48 70 91 47z
m2852 -332 c9 -18 20 -49 23 -68 4 -19 11 -42 15 -51 7 -14 -2 -17 -59 -23
-37 -3 -101 -6 -143 -6 l-77 0 -9 38 c-6 20 -20 61 -32 90 l-21 52 143 0 142
0 18 -32z m2501 -159 c45 -21 49 -49 43 -311 -6 -296 -22 -375 -114 -577 -104
-230 -330 -464 -561 -580 -94 -47 -262 -101 -339 -108 l-68 -6 37 41 c21 23
49 61 64 84 15 24 28 44 29 46 1 1 47 19 101 40 224 85 391 216 522 409 140
206 182 379 182 746 0 176 5 202 43 217 30 12 32 12 61 -1z m-2049 -205 c9 -9
15 -26 13 -37 -6 -42 -37 -47 -330 -47 -265 0 -279 1 -298 20 -19 19 -27 60
-13 73 3 4 143 7 309 7 266 0 305 -2 319 -16z m559 0 c20 -20 20 -38 0 -59
-24 -23 -262 -18 -277 7 -8 12 -8 24 1 42 12 26 12 26 136 26 100 0 128 -3
140 -16z m-1777 -137 c13 -34 23 -65 23 -69 0 -5 -402 -8 -894 -8 l-895 0 -20
26 c-33 42 -25 87 21 110 9 5 396 8 880 6 l863 -3 22 -62z m-1437 -297 c56
-56 -23 -126 -82 -73 -10 9 -18 24 -18 35 0 24 35 58 60 58 11 0 29 -9 40 -20z
m1539 -35 c12 -31 21 -58 21 -60 0 -3 -59 -5 -130 -5 -125 0 -132 1 -155 24
-26 26 -25 46 3 79 13 14 33 17 128 17 l113 0 20 -55z m-581 33 c7 -7 12 -27
12 -45 0 -57 -71 -73 -99 -22 -13 24 -13 29 2 53 19 28 63 36 85 14z m-487
-48 c32 -18 23 -69 -14 -83 -29 -11 -57 10 -57 43 0 41 33 60 71 40z m1176
-254 c12 -38 22 -71 20 -72 -2 -2 -538 -5 -1191 -6 l-1188 -3 -24 28 c-29 34
-31 66 -3 101 l21 26 1170 -2 1171 -3 24 -69z m559 26 c66 -34 101 -69 133
-134 95 -189 -39 -394 -256 -392 -60 1 -80 6 -124 31 -119 67 -169 213 -120
343 35 91 87 140 181 171 41 14 142 3 186 -19z m1268 8 c226 -85 248 -397 37
-507 -50 -26 -75 -33 -120 -33 -79 0 -149 25 -170 61 -9 16 -22 31 -30 34 -10
4 -8 -2 5 -17 l19 -23 -21 18 c-12 9 -34 41 -49 69 -82 150 -10 345 147 399
69 24 115 24 182 -1z m-716 -301 c4 -25 -20 -49 -50 -49 -23 0 -50 42 -42 64
17 44 85 33 92 -15z m-2244 15 c23 -22 20 -40 -10 -63 -23 -18 -41 -21 -120
-21 -116 0 -124 3 -124 46 0 45 19 53 142 53 75 1 100 -2 112 -15z m1004 4
c20 -20 14 -75 -10 -98 -21 -19 -33 -20 -354 -20 -308 0 -333 1 -355 18 -14
12 -22 30 -22 50 0 64 -10 62 377 62 260 0 355 -3 364 -12z m-1733 -88 c80
-49 76 -181 -7 -243 -34 -26 -112 -25 -148 1 -37 28 -70 81 -70 114 0 112 130
186 225 128z m1663 -160 c23 -1 32 -6 32 -18 0 -11 3 -13 8 -6 9 14 28 -4 26
-23 -1 -7 -2 -19 -3 -25 -1 -7 -13 5 -26 27 -14 22 -25 34 -25 26 0 -10 -3
-11 -13 -2 -10 8 -14 7 -14 -4 0 -8 4 -12 9 -9 4 3 8 -5 8 -18 0 -19 -2 -20
-11 -8 -9 13 -10 13 -6 -1 3 -9 0 -22 -6 -28 -8 -8 -5 -9 11 -6 14 2 22 -1 22
-10 0 -8 4 -16 9 -19 5 -4 7 3 4 14 -7 26 12 26 30 -1 10 -14 16 -16 19 -8 3
9 6 8 11 -4 6 -16 -29 -17 -501 -14 -415 2 -506 4 -504 15 1 8 -2 11 -8 7 -6
-3 -8 -11 -5 -16 4 -5 -7 -9 -24 -9 -28 0 -30 2 -28 35 2 33 16 51 18 23 0
-10 2 -10 6 0 2 6 8 10 13 7 5 -3 7 3 6 12 -2 10 -6 16 -11 15 -4 -2 -12 2
-17 10 -7 10 -8 9 -4 -4 6 -19 -9 -25 -19 -8 -4 6 -11 8 -16 5 -5 -4 -13 4
-18 17 -9 21 -10 21 -11 3 l-1 -20 -9 20 c-8 18 -9 18 -9 2 -1 -10 -6 -15 -11
-12 -6 4 -7 11 -4 17 4 6 0 6 -13 -1 -11 -6 -23 -8 -27 -6 -3 3 -3 2 0 -2 3
-4 13 -8 22 -8 13 0 17 -8 15 -34 l-2 -35 20 30 c11 16 19 23 19 14 0 -10 3
-11 8 -4 9 14 28 -4 26 -23 -3 -26 -6 -27 -15 -8 -9 20 -9 20 -6 0 5 -28 -19
-51 -26 -25 -2 10 0 24 7 31 9 11 8 11 -5 1 -10 -8 -15 -21 -12 -32 4 -16 0
-20 -18 -19 -17 1 -19 3 -6 6 19 5 22 18 7 28 -5 3 -8 19 -6 36 3 22 0 29 -10
25 -13 -5 -41 20 -32 29 3 3 47 8 99 11 52 3 96 7 98 9 3 3 820 -1 929 -5z
m1584 -71 l68 -70 -280 2 c-243 1 -280 3 -280 16 0 12 3 13 14 4 11 -9 16 -9
22 0 4 8 3 9 -4 5 -7 -4 -12 -2 -12 3 0 6 -7 11 -16 11 -8 0 -12 5 -9 10 4 6
10 8 14 6 4 -3 7 14 6 37 l-1 42 60 6 c34 3 126 4 205 2 l145 -3 68 -71z
m-495 51 c-3 -10 0 -21 7 -24 8 -3 8 -5 0 -5 -6 -1 -18 7 -25 16 -10 11 -10
14 -1 9 7 -4 12 -1 12 8 0 9 3 16 6 16 4 0 4 -9 1 -20z m-2229 -41 c-3 -8 -7
-3 -11 10 -4 17 -3 21 5 13 5 -5 8 -16 6 -23z m1176 -11 c6 -5 7 -8 1 -9 -5 0
-18 -2 -29 -4 -14 -3 -16 -1 -7 8 6 6 12 20 12 32 1 20 1 20 6 0 3 -11 10 -23
17 -27z m71 21 c-4 -5 -12 -9 -18 -8 -9 0 -8 2 1 6 6 2 9 10 6 15 -4 7 -2 8 5
4 6 -4 9 -12 6 -17z m-1162 -4 c-3 -9 -8 -14 -10 -11 -3 3 -2 9 2 15 9 16 15
13 8 -4z m2148 -18 c-7 -7 -14 -8 -21 -1 -6 6 -2 10 12 11 16 2 18 -1 9 -10z
m-983 -14 c-8 -10 -14 -10 -24 -2 -18 15 -18 15 11 15 19 0 22 -3 13 -13z
m-1210 -8 c3 -3 0 -5 -7 -5 -7 0 -9 -5 -5 -12 6 -10 5 -10 -8 -1 -8 7 -17 11
-20 8 -2 -3 -5 1 -5 9 0 13 32 14 45 1z m105 -23 c-2 -10 -11 -19 -19 -19 -11
0 -11 4 3 19 9 10 17 18 19 18 1 0 0 -8 -3 -18z m1114 -9 c0 -9 -4 -10 -14 -2
-7 6 -13 12 -13 14 0 1 6 2 13 2 8 0 14 -6 14 -14z m960 -5 c-3 -8 -6 -5 -6 6
-1 11 2 17 5 13 3 -3 4 -12 1 -19z m-2203 4 c3 -5 -1 -9 -9 -9 -8 0 -12 4 -9
9 3 4 7 8 9 8 2 0 6 -4 9 -8z m3871 -277 c163 -48 261 -221 219 -384 -25 -97
-64 -133 -342 -322 -89 -61 -160 -115 -157 -120 4 -5 112 -9 256 -9 l249 0 0
-91 0 -92 -327 6 c-181 4 -340 7 -355 7 l-28 0 0 129 0 129 168 116 c292 201
312 216 328 248 20 39 14 105 -12 141 -74 101 -276 57 -301 -65 -3 -16 -7 -28
-8 -28 -11 0 -175 80 -175 86 0 4 14 35 31 70 80 163 263 235 454 179z m-833
-32 c105 -47 203 -179 227 -308 34 -179 20 -311 -49 -452 -68 -138 -170 -212
-305 -221 -264 -17 -450 219 -431 548 9 163 49 265 140 355 111 111 276 142
418 78z m-2948 -8 c127 -64 188 -191 156 -324 -12 -51 -67 -121 -95 -121 -23
0 -18 -18 6 -25 43 -14 107 -85 125 -137 34 -103 -11 -236 -100 -295 -86 -58
-118 -63 -438 -63 l-289 0 2 501 2 500 286 -3 286 -3 59 -30z m566 -274 c0
-280 2 -313 19 -353 61 -140 225 -179 335 -79 63 57 66 73 66 424 l0 317 209
0 208 0 61 -92 c33 -51 78 -124 101 -163 23 -38 48 -79 56 -89 15 -20 15 -20
30 0 8 10 58 92 111 182 l97 162 133 0 c74 0 134 -2 134 -5 0 -6 -120 -204
-255 -421 l-115 -183 0 -196 0 -195 -120 0 -120 0 0 193 0 194 -48 79 c-87
144 -235 375 -238 372 -1 -2 -4 -93 -5 -203 -3 -276 -11 -344 -48 -419 -77
-156 -227 -239 -421 -231 -193 7 -338 111 -400 288 -18 52 -20 82 -20 392 l0
335 115 0 115 0 0 -309z m1700 -216 l0 -75 -140 0 -140 0 0 69 0 70 48 4 c26
2 89 4 140 5 l92 2 0 -75z"/>
<path d="M4396 7174 c-4 -10 -4 -15 0 -11 4 4 15 0 24 -8 14 -13 17 -13 17 0
0 8 -4 12 -8 9 -4 -2 -12 3 -17 12 -8 15 -10 14 -16 -2z"/>
<path d="M4306 7152 c-3 -5 1 -9 9 -9 8 0 12 4 9 9 -3 4 -7 8 -9 8 -2 0 -6 -4
-9 -8z"/>
<path d="M4354 7129 c-4 -7 -3 -10 4 -5 6 3 18 -4 26 -16 9 -12 16 -18 16 -12
0 6 -9 19 -19 28 -14 13 -21 14 -27 5z"/>
<path d="M4426 7107 c3 -10 9 -15 12 -12 3 3 0 11 -7 18 -10 9 -11 8 -5 -6z"/>
<path d="M7196 5841 c-4 -5 -2 -12 3 -15 5 -4 12 -2 15 3 4 5 2 12 -3 15 -5 4
-12 2 -15 -3z"/>
<path d="M7199 5809 c0 -2 -2 -11 -4 -20 -1 -9 3 -16 10 -16 7 0 12 6 11 13
-2 13 -15 31 -17 23z"/>
<path d="M7205 5701 c-3 -5 -2 -12 3 -15 5 -3 9 1 9 9 0 17 -3 19 -12 6z"/>
<path d="M7201 5646 c-10 -11 -9 -14 1 -12 14 2 23 15 15 22 -2 2 -10 -2 -16
-10z"/>
<path d="M5463 6613 c-289 -3 -313 -5 -313 -21 0 -35 40 -354 46 -363 3 -5
314 -9 737 -9 l733 0 53 168 c30 92 56 173 59 180 3 9 -91 12 -448 12 -452 0
-453 0 -435 20 18 20 18 20 -51 18 -38 -2 -210 -4 -381 -5z"/>
<path d="M5880 6085 c-11 -13 -15 -13 -23 -3 -6 9 -7 8 -3 -4 5 -17 -15 -18
-320 -18 -305 0 -325 -1 -320 -17 5 -19 16 -94 37 -245 12 -84 13 -86 42 -92
57 -12 1185 -7 1193 5 9 15 114 330 114 342 0 6 -140 8 -365 5 -201 -2 -365
-2 -365 1 0 2 7 13 17 23 9 10 14 18 11 18 -3 0 -11 -7 -18 -15z"/>
<path d="M3365 5892 c-99 -48 -142 -160 -95 -252 21 -41 69 -83 109 -95 80
-24 172 15 217 91 48 82 22 180 -67 246 -37 28 -116 33 -164 10z"/>
<path d="M4410 4031 c0 -6 4 -13 10 -16 6 -3 7 1 4 9 -7 18 -14 21 -14 7z"/>
<path d="M4406 3957 c3 -10 9 -15 12 -12 3 3 0 11 -7 18 -10 9 -11 8 -5 -6z"/>
<path d="M4316 3952 c-3 -5 1 -9 9 -9 8 0 12 4 9 9 -3 4 -7 8 -9 8 -2 0 -6 -4
-9 -8z"/>
<path d="M5533 3985 c0 -8 4 -12 9 -9 5 3 6 10 3 15 -9 13 -12 11 -12 -6z"/>
<path d="M6087 3520 c-139 -25 -227 -221 -197 -437 24 -173 110 -273 235 -273
102 0 178 66 215 189 25 79 27 252 5 327 -41 138 -142 214 -258 194z"/>
<path d="M2930 3356 l0 -96 148 0 c142 0 149 1 170 23 31 33 30 97 -2 134 -24
28 -24 28 -170 31 l-146 3 0 -95z"/>
<path d="M2937 3063 c-4 -3 -7 -48 -7 -100 l0 -93 140 0 c166 0 203 10 225 65
21 49 0 100 -49 120 -37 16 -295 22 -309 8z"/>
</g>
</svg>
